<svg xmlns="http://www.w3.org/2000/svg" display="none">
    <symbol id="arrow-bottom" viewBox="0 0 511.998 511.998">
        <g>
            <g>
                <path d="M509.04,131.296c-4.063-4.24-10.802-4.406-15.083-0.333L255.999,358.577L18.04,130.962
			c-4.271-4.094-11.021-3.927-15.083,0.333c-4.073,4.26-3.917,11.01,0.333,15.083l245.333,234.667
			c2.063,1.969,4.719,2.958,7.375,2.958s5.313-0.99,7.375-2.958l245.333-234.667C512.957,142.306,513.113,135.556,509.04,131.296z"
                />
            </g>
        </g>
    </symbol>

    <symbol id="facebook" viewBox="0 0 24 24">
        <path d="m15.997 3.985h2.191v-3.816c-.378-.052-1.678-.169-3.192-.169-3.159 0-5.323 1.987-5.323 5.639v3.361h-3.486v4.266h3.486v10.734h4.274v-10.733h3.345l.531-4.266h-3.877v-2.939c.001-1.233.333-2.077 2.051-2.077z"/>
    </symbol>

    <symbol id="instagram" viewBox="0 0 512.00096 512.00096">
        <path d="m373.40625 0h-234.8125c-76.421875 0-138.59375 62.171875-138.59375 138.59375v234.816406c0 76.417969 62.171875 138.589844 138.59375 138.589844h234.816406c76.417969 0 138.589844-62.171875 138.589844-138.589844v-234.816406c0-76.421875-62.171875-138.59375-138.59375-138.59375zm108.578125 373.410156c0 59.867188-48.707031 108.574219-108.578125 108.574219h-234.8125c-59.871094 0-108.578125-48.707031-108.578125-108.574219v-234.816406c0-59.871094 48.707031-108.578125 108.578125-108.578125h234.816406c59.867188 0 108.574219 48.707031 108.574219 108.578125zm0 0"/>
        <path d="m256 116.003906c-77.195312 0-139.996094 62.800782-139.996094 139.996094s62.800782 139.996094 139.996094 139.996094 139.996094-62.800782 139.996094-139.996094-62.800782-139.996094-139.996094-139.996094zm0 249.976563c-60.640625 0-109.980469-49.335938-109.980469-109.980469 0-60.640625 49.339844-109.980469 109.980469-109.980469 60.644531 0 109.980469 49.339844 109.980469 109.980469 0 60.644531-49.335938 109.980469-109.980469 109.980469zm0 0"/>
        <path d="m399.34375 66.285156c-22.8125 0-41.367188 18.558594-41.367188 41.367188 0 22.8125 18.554688 41.371094 41.367188 41.371094s41.371094-18.558594 41.371094-41.371094-18.558594-41.367188-41.371094-41.367188zm0 52.71875c-6.257812 0-11.351562-5.09375-11.351562-11.351562 0-6.261719 5.09375-11.351563 11.351562-11.351563 6.261719 0 11.355469 5.089844 11.355469 11.351563 0 6.257812-5.09375 11.351562-11.355469 11.351562zm0 0"/>
    </symbol>

    <symbol id="arrow-left" viewBox="0 0 512 512">
        <g>
            <g>
                <path d="M501.333,245.333H36.417l141.792-141.792c4.167-4.167,4.167-10.917,0-15.083c-4.167-4.167-10.917-4.167-15.083,0l-160,160
			c-4.167,4.167-4.167,10.917,0,15.083l160,160c2.083,2.083,4.813,3.125,7.542,3.125c2.729,0,5.458-1.042,7.542-3.125
			c4.167-4.167,4.167-10.917,0-15.083L36.417,266.667h464.917c5.896,0,10.667-4.771,10.667-10.667S507.229,245.333,501.333,245.333z
			"/>
            </g>
        </g>
    </symbol>

    <symbol id="arrow-right" viewBox="0 0 512 512">
        <g>
            <g>
                <path d="M508.875,248.458l-160-160c-4.167-4.167-10.917-4.167-15.083,0c-4.167,4.167-4.167,10.917,0,15.083l141.792,141.792
			H10.667C4.771,245.333,0,250.104,0,256s4.771,10.667,10.667,10.667h464.917L333.792,408.458c-4.167,4.167-4.167,10.917,0,15.083
			c2.083,2.083,4.813,3.125,7.542,3.125c2.729,0,5.458-1.042,7.542-3.125l160-160C513.042,259.375,513.042,252.625,508.875,248.458z
			"/>
            </g>
        </g>
    </symbol>


</svg>